<svg width="101" height="101" viewBox="0 0 101 101" fill="none" xmlns="http://www.w3.org/2000/svg">
<path d="M50.5 0C22.6532 0 0 22.6532 0 50.5C0 78.3468 22.6532 101 50.5 101C78.3468 101 101 78.3468 101 50.5C101 22.6532 78.3468 0 50.5 0ZM74.5171 76.6207C73.6964 77.4414 72.6192 77.8544 71.5419 77.8544C70.4647 77.8544 69.3866 77.4414 68.5668 76.6207L47.5248 55.5796C46.7335 54.7928 46.2919 53.7233 46.2919 52.6044V25.25C46.2919 22.9229 48.1767 21.0419 50.5 21.0419C52.8233 21.0419 54.7081 22.9229 54.7081 25.25V50.8622L74.5171 70.6704C76.1623 72.3163 76.1623 74.9756 74.5171 76.6207Z" fill="#60CBFF"/>
</svg>
