<svg width="422" height="391" viewBox="0 0 422 391" fill="none" xmlns="http://www.w3.org/2000/svg">
<g filter="url(#filter0_ii)">
<path d="M422 195.5C422 303.472 327.532 391 211 391C94.4679 391 0 303.472 0 195.5C0 87.5283 94.4679 0 211 0C327.532 0 422 87.5283 422 195.5Z" fill="url(#paint0_linear)"/>
</g>
<path d="M142.885 167H106.886V114.485H142.885V124.996H117.396V135.506H134.645V146.016H117.396V156.49H142.885V167ZM202.357 167H191.884V129.5C191.884 128.768 191.737 128.084 191.444 127.449C191.176 126.814 190.797 126.265 190.309 125.801C189.845 125.313 189.296 124.935 188.661 124.666C188.026 124.397 187.343 124.263 186.61 124.263C185.878 124.263 185.194 124.397 184.56 124.666C183.925 124.935 183.363 125.313 182.875 125.801C182.411 126.265 182.045 126.814 181.776 127.449C181.508 128.084 181.374 128.768 181.374 129.5V167H170.863V129.5C170.863 128.768 170.729 128.084 170.46 127.449C170.192 126.814 169.813 126.265 169.325 125.801C168.861 125.313 168.312 124.935 167.677 124.666C167.042 124.397 166.359 124.263 165.626 124.263C164.894 124.263 164.21 124.397 163.576 124.666C162.941 124.935 162.379 125.313 161.891 125.801C161.427 126.265 161.061 126.814 160.792 127.449C160.524 128.084 160.39 128.768 160.39 129.5V167H149.879V129.5C149.879 127.327 150.282 125.289 151.088 123.384C151.918 121.456 153.041 119.783 154.457 118.367C155.897 116.927 157.57 115.804 159.474 114.998C161.403 114.168 163.454 113.753 165.626 113.753C167.58 113.753 169.459 114.107 171.266 114.815C173.073 115.499 174.696 116.5 176.137 117.818C177.577 116.5 179.188 115.499 180.971 114.815C182.777 114.107 184.657 113.753 186.61 113.753C188.783 113.753 190.822 114.168 192.726 114.998C194.655 115.804 196.327 116.927 197.743 118.367C199.184 119.783 200.307 121.456 201.112 123.384C201.942 125.289 202.357 127.327 202.357 129.5V167ZM242.677 146.016V135.506C242.677 134.065 242.396 132.71 241.835 131.441C241.298 130.147 240.553 129.024 239.601 128.072C238.649 127.12 237.526 126.375 236.232 125.838C234.962 125.276 233.607 124.996 232.167 124.996C230.727 124.996 229.359 125.276 228.065 125.838C226.796 126.375 225.685 127.12 224.733 128.072C223.781 129.024 223.024 130.147 222.462 131.441C221.925 132.71 221.657 134.065 221.657 135.506V146.016H242.677ZM253.188 167H242.677V156.49H221.657V167H211.183V135.506C211.183 132.601 211.732 129.878 212.831 127.339C213.93 124.776 215.419 122.542 217.299 120.638C219.203 118.733 221.425 117.232 223.964 116.133C226.527 115.035 229.262 114.485 232.167 114.485C235.072 114.485 237.794 115.035 240.333 116.133C242.897 117.232 245.131 118.733 247.035 120.638C248.939 122.542 250.441 124.776 251.54 127.339C252.638 129.878 253.188 132.601 253.188 135.506V167ZM272.816 167H262.306V114.485H272.816V167ZM319.362 167H282.594V114.485H293.104V156.49H319.362V167Z" fill="#EE843B"/>
<path d="M171 227V276H250V227H171ZM192.801 248.585L177.583 264.134V238.387L192.801 248.585V248.585ZM179.17 232.444H241.827L210.5 253.441L179.17 232.444V232.444ZM197.913 252.012L210.5 260.448L223.107 251.998L241.58 270.556H179.766L197.913 252.012ZM228.222 248.571L243.417 238.387V263.834L228.222 248.571Z" fill="#EE843B"/>
<defs>
<filter id="filter0_ii" x="0" y="0" width="430" height="399" filterUnits="userSpaceOnUse" color-interpolation-filters="sRGB">
<feFlood flood-opacity="0" result="BackgroundImageFix"/>
<feBlend mode="normal" in="SourceGraphic" in2="BackgroundImageFix" result="shape"/>
<feColorMatrix in="SourceAlpha" type="matrix" values="0 0 0 0 0 0 0 0 0 0 0 0 0 0 0 0 0 0 127 0" result="hardAlpha"/>
<feOffset dy="4"/>
<feGaussianBlur stdDeviation="50"/>
<feComposite in2="hardAlpha" operator="arithmetic" k2="-1" k3="1"/>
<feColorMatrix type="matrix" values="0 0 0 0 1 0 0 0 0 1 0 0 0 0 1 0 0 0 0.5 0"/>
<feBlend mode="normal" in2="shape" result="effect1_innerShadow"/>
<feColorMatrix in="SourceAlpha" type="matrix" values="0 0 0 0 0 0 0 0 0 0 0 0 0 0 0 0 0 0 127 0" result="hardAlpha"/>
<feOffset dx="8" dy="8"/>
<feGaussianBlur stdDeviation="10"/>
<feComposite in2="hardAlpha" operator="arithmetic" k2="-1" k3="1"/>
<feColorMatrix type="matrix" values="0 0 0 0 1 0 0 0 0 1 0 0 0 0 1 0 0 0 0.25 0"/>
<feBlend mode="normal" in2="effect1_innerShadow" result="effect2_innerShadow"/>
</filter>
<linearGradient id="paint0_linear" x1="117.732" y1="71.804" x2="258.646" y2="330.609" gradientUnits="userSpaceOnUse">
<stop stop-color="#60CBFF" stop-opacity="0.25"/>
<stop offset="1" stop-color="#60CBFF" stop-opacity="0.25"/>
</linearGradient>
</defs>
</svg>
