<svg width="522" height="504" viewBox="0 0 522 504" fill="none" xmlns="http://www.w3.org/2000/svg">
<g filter="url(#filter0_ii)">
<path d="M522 252C522 391.176 405.146 504 261 504C116.854 504 0 391.176 0 252C0 112.824 116.854 0 261 0C405.146 0 522 112.824 522 252Z" fill="url(#paint0_linear)"/>
</g>
<path d="M259.5 308.167C279.029 308.167 294.917 324.241 294.917 344C294.917 363.758 279.029 379.833 259.5 379.833C239.971 379.833 224.083 363.758 224.083 344C224.083 324.241 239.971 308.167 259.5 308.167ZM259.5 301C236.029 301 217 320.253 217 344C217 367.747 236.029 387 259.5 387C282.971 387 302 367.747 302 344C302 320.253 282.971 301 259.5 301ZM252.417 336.833H245.333V344H252.417V365.5H263.042V344H269.488L270.125 336.833H263.042V333.848C263.042 332.136 263.382 331.458 265.018 331.458H270.125V322.5H261.611C255.243 322.5 252.417 325.338 252.417 330.77V336.833Z" fill="#EE843B"/>
<path d="M114.191 224H105.783V181.988H135.197V190.396H114.191V198.805H126.789V207.213H114.191V224ZM163.322 207.213V198.805C163.322 197.652 163.098 196.568 162.648 195.553C162.219 194.518 161.623 193.619 160.861 192.857C160.1 192.096 159.201 191.5 158.166 191.07C157.15 190.621 156.066 190.396 154.914 190.396C153.762 190.396 152.668 190.621 151.633 191.07C150.617 191.5 149.729 192.096 148.967 192.857C148.205 193.619 147.6 194.518 147.15 195.553C146.721 196.568 146.506 197.652 146.506 198.805V207.213H163.322ZM171.73 224H163.322V215.592H146.506V224H138.127V198.805C138.127 196.48 138.566 194.303 139.445 192.271C140.324 190.221 141.516 188.434 143.02 186.91C144.543 185.387 146.32 184.186 148.352 183.307C150.402 182.428 152.59 181.988 154.914 181.988C157.238 181.988 159.416 182.428 161.447 183.307C163.498 184.186 165.285 185.387 166.809 186.91C168.332 188.434 169.533 190.221 170.412 192.271C171.291 194.303 171.73 196.48 171.73 198.805V224ZM212.57 219.693C210.617 221.373 208.43 222.662 206.008 223.561C203.586 224.459 201.076 224.908 198.479 224.908C196.486 224.908 194.562 224.645 192.707 224.117C190.871 223.609 189.143 222.887 187.521 221.949C185.92 220.992 184.455 219.85 183.127 218.521C181.799 217.193 180.656 215.729 179.699 214.127C178.762 212.506 178.029 210.777 177.502 208.941C176.994 207.086 176.74 205.162 176.74 203.17C176.74 201.178 176.994 199.254 177.502 197.398C178.029 195.543 178.762 193.814 179.699 192.213C180.656 190.592 181.799 189.117 183.127 187.789C184.455 186.461 185.92 185.328 187.521 184.391C189.143 183.434 190.871 182.701 192.707 182.193C194.562 181.666 196.486 181.402 198.479 181.402C201.076 181.402 203.586 181.852 206.008 182.75C208.43 183.629 210.617 184.918 212.57 186.617L208.117 193.941C206.887 192.613 205.432 191.598 203.752 190.895C202.072 190.172 200.314 189.811 198.479 189.811C196.623 189.811 194.885 190.162 193.264 190.865C191.643 191.568 190.227 192.525 189.016 193.736C187.805 194.928 186.848 196.344 186.145 197.984C185.441 199.605 185.09 201.334 185.09 203.17C185.09 205.006 185.441 206.734 186.145 208.355C186.848 209.957 187.805 211.363 189.016 212.574C190.227 213.785 191.643 214.742 193.264 215.445C194.885 216.148 196.623 216.5 198.479 216.5C200.314 216.5 202.072 216.148 203.752 215.445C205.432 214.723 206.887 213.697 208.117 212.369L212.57 219.693ZM246.262 224H217.463V181.988H246.262V190.396H225.871V198.805H239.67V207.213H225.871V215.592H246.262V224ZM285.754 211.402C285.754 213.141 285.422 214.771 284.758 216.295C284.094 217.818 283.186 219.156 282.033 220.309C280.9 221.441 279.572 222.34 278.049 223.004C276.525 223.668 274.895 224 273.156 224H252.15V181.988H273.156C274.895 181.988 276.525 182.32 278.049 182.984C279.572 183.648 280.9 184.557 282.033 185.709C283.186 186.842 284.094 188.17 284.758 189.693C285.422 191.217 285.754 192.848 285.754 194.586C285.754 195.367 285.646 196.168 285.432 196.988C285.217 197.809 284.914 198.6 284.523 199.361C284.133 200.123 283.664 200.816 283.117 201.441C282.57 202.066 281.965 202.584 281.301 202.994C281.984 203.365 282.6 203.873 283.146 204.518C283.693 205.143 284.162 205.836 284.553 206.598C284.943 207.359 285.236 208.16 285.432 209C285.646 209.82 285.754 210.621 285.754 211.402ZM260.559 215.592H273.156C273.742 215.592 274.289 215.484 274.797 215.27C275.305 215.055 275.744 214.762 276.115 214.391C276.506 214 276.809 213.551 277.023 213.043C277.238 212.535 277.346 211.988 277.346 211.402C277.346 210.816 277.238 210.27 277.023 209.762C276.809 209.254 276.506 208.814 276.115 208.443C275.744 208.053 275.305 207.75 274.797 207.535C274.289 207.32 273.742 207.213 273.156 207.213H260.559V215.592ZM260.559 198.805H273.156C273.742 198.805 274.289 198.697 274.797 198.482C275.305 198.268 275.744 197.975 276.115 197.604C276.506 197.213 276.809 196.764 277.023 196.256C277.238 195.729 277.346 195.172 277.346 194.586C277.346 194 277.238 193.453 277.023 192.945C276.809 192.438 276.506 191.998 276.115 191.627C275.744 191.236 275.305 190.934 274.797 190.719C274.289 190.504 273.742 190.396 273.156 190.396H260.559V198.805ZM333.273 203.17C333.273 205.162 333.01 207.086 332.482 208.941C331.975 210.777 331.252 212.506 330.314 214.127C329.377 215.729 328.244 217.193 326.916 218.521C325.588 219.85 324.123 220.992 322.521 221.949C320.92 222.887 319.191 223.609 317.336 224.117C315.48 224.645 313.557 224.908 311.564 224.908C309.572 224.908 307.648 224.645 305.793 224.117C303.957 223.609 302.229 222.887 300.607 221.949C299.006 220.992 297.541 219.85 296.213 218.521C294.885 217.193 293.742 215.729 292.785 214.127C291.848 212.506 291.115 210.777 290.588 208.941C290.08 207.086 289.826 205.162 289.826 203.17C289.826 201.178 290.08 199.254 290.588 197.398C291.115 195.543 291.848 193.814 292.785 192.213C293.742 190.611 294.885 189.146 296.213 187.818C297.541 186.49 299.006 185.357 300.607 184.42C302.229 183.482 303.957 182.76 305.793 182.252C307.648 181.725 309.572 181.461 311.564 181.461C313.557 181.461 315.48 181.725 317.336 182.252C319.191 182.76 320.92 183.482 322.521 184.42C324.123 185.357 325.588 186.49 326.916 187.818C328.244 189.146 329.377 190.611 330.314 192.213C331.252 193.814 331.975 195.543 332.482 197.398C333.01 199.254 333.273 201.178 333.273 203.17ZM324.924 203.17C324.924 201.334 324.572 199.605 323.869 197.984C323.166 196.344 322.209 194.928 320.998 193.736C319.807 192.525 318.391 191.568 316.75 190.865C315.129 190.162 313.4 189.811 311.564 189.811C309.709 189.811 307.971 190.162 306.35 190.865C304.729 191.568 303.312 192.525 302.102 193.736C300.891 194.928 299.934 196.344 299.23 197.984C298.527 199.605 298.176 201.334 298.176 203.17C298.176 205.006 298.527 206.734 299.23 208.355C299.934 209.957 300.891 211.363 302.102 212.574C303.312 213.785 304.729 214.742 306.35 215.445C307.971 216.148 309.709 216.5 311.564 216.5C313.4 216.5 315.129 216.148 316.75 215.445C318.391 214.742 319.807 213.785 320.998 212.574C322.209 211.363 323.166 209.957 323.869 208.355C324.572 206.734 324.924 205.006 324.924 203.17ZM379.973 203.17C379.973 205.162 379.709 207.086 379.182 208.941C378.674 210.777 377.951 212.506 377.014 214.127C376.076 215.729 374.943 217.193 373.615 218.521C372.287 219.85 370.822 220.992 369.221 221.949C367.619 222.887 365.891 223.609 364.035 224.117C362.18 224.645 360.256 224.908 358.264 224.908C356.271 224.908 354.348 224.645 352.492 224.117C350.656 223.609 348.928 222.887 347.307 221.949C345.705 220.992 344.24 219.85 342.912 218.521C341.584 217.193 340.441 215.729 339.484 214.127C338.547 212.506 337.814 210.777 337.287 208.941C336.779 207.086 336.525 205.162 336.525 203.17C336.525 201.178 336.779 199.254 337.287 197.398C337.814 195.543 338.547 193.814 339.484 192.213C340.441 190.611 341.584 189.146 342.912 187.818C344.24 186.49 345.705 185.357 347.307 184.42C348.928 183.482 350.656 182.76 352.492 182.252C354.348 181.725 356.271 181.461 358.264 181.461C360.256 181.461 362.18 181.725 364.035 182.252C365.891 182.76 367.619 183.482 369.221 184.42C370.822 185.357 372.287 186.49 373.615 187.818C374.943 189.146 376.076 190.611 377.014 192.213C377.951 193.814 378.674 195.543 379.182 197.398C379.709 199.254 379.973 201.178 379.973 203.17ZM371.623 203.17C371.623 201.334 371.271 199.605 370.568 197.984C369.865 196.344 368.908 194.928 367.697 193.736C366.506 192.525 365.09 191.568 363.449 190.865C361.828 190.162 360.1 189.811 358.264 189.811C356.408 189.811 354.67 190.162 353.049 190.865C351.428 191.568 350.012 192.525 348.801 193.736C347.59 194.928 346.633 196.344 345.93 197.984C345.227 199.605 344.875 201.334 344.875 203.17C344.875 205.006 345.227 206.734 345.93 208.355C346.633 209.957 347.59 211.363 348.801 212.574C350.012 213.785 351.428 214.742 353.049 215.445C354.67 216.148 356.408 216.5 358.264 216.5C360.1 216.5 361.828 216.148 363.449 215.445C365.09 214.742 366.506 213.785 367.697 212.574C368.908 211.363 369.865 209.957 370.568 208.355C371.271 206.734 371.623 205.006 371.623 203.17ZM393.918 224H385.51V181.988H393.918V202.994L409.562 181.988H419.113L405.842 199.713L419.113 224H409.562L400.334 207.008L393.918 215.592V224Z" fill="#EE843B"/>
<defs>
<filter id="filter0_ii" x="0" y="0" width="530" height="512" filterUnits="userSpaceOnUse" color-interpolation-filters="sRGB">
<feFlood flood-opacity="0" result="BackgroundImageFix"/>
<feBlend mode="normal" in="SourceGraphic" in2="BackgroundImageFix" result="shape"/>
<feColorMatrix in="SourceAlpha" type="matrix" values="0 0 0 0 0 0 0 0 0 0 0 0 0 0 0 0 0 0 127 0" result="hardAlpha"/>
<feOffset dy="4"/>
<feGaussianBlur stdDeviation="50"/>
<feComposite in2="hardAlpha" operator="arithmetic" k2="-1" k3="1"/>
<feColorMatrix type="matrix" values="0 0 0 0 1 0 0 0 0 1 0 0 0 0 1 0 0 0 0.5 0"/>
<feBlend mode="normal" in2="shape" result="effect1_innerShadow"/>
<feColorMatrix in="SourceAlpha" type="matrix" values="0 0 0 0 0 0 0 0 0 0 0 0 0 0 0 0 0 0 127 0" result="hardAlpha"/>
<feOffset dx="8" dy="8"/>
<feGaussianBlur stdDeviation="10"/>
<feComposite in2="hardAlpha" operator="arithmetic" k2="-1" k3="1"/>
<feColorMatrix type="matrix" values="0 0 0 0 1 0 0 0 0 1 0 0 0 0 1 0 0 0 0.25 0"/>
<feBlend mode="normal" in2="effect1_innerShadow" result="effect2_innerShadow"/>
</filter>
<linearGradient id="paint0_linear" x1="145.63" y1="92.5556" x2="331.264" y2="419.73" gradientUnits="userSpaceOnUse">
<stop stop-color="#60CBFF" stop-opacity="0.25"/>
<stop offset="1" stop-color="#60CBFF" stop-opacity="0.25"/>
</linearGradient>
</defs>
</svg>
