<svg width="85" height="86" viewBox="0 0 85 86" fill="none" xmlns="http://www.w3.org/2000/svg">
<path d="M42.5 7.16667C62.0288 7.16667 77.9167 23.2415 77.9167 43C77.9167 62.7585 62.0288 78.8333 42.5 78.8333C22.9713 78.8333 7.08333 62.7585 7.08333 43C7.08333 23.2415 22.9713 7.16667 42.5 7.16667ZM42.5 0C19.0294 0 0 19.2533 0 43C0 66.7467 19.0294 86 42.5 86C65.9706 86 85 66.7467 85 43C85 19.2533 65.9706 0 42.5 0ZM35.4167 35.8333H28.3333V43H35.4167V64.5H46.0417V43H52.4875L53.125 35.8333H46.0417V32.8484C46.0417 31.1356 46.3817 30.4583 48.0179 30.4583H53.125V21.5H44.6108C38.2429 21.5 35.4167 24.338 35.4167 29.7703V35.8333Z" fill="#EE843B"/>
</svg>
