<svg width="1440" height="986" viewBox="0 0 1440 986" fill="none" xmlns="http://www.w3.org/2000/svg">
<g clip-path="url(#clip0)">
<path d="M1205.32 136.137C1154.66 136.137 1106.4 127.392 1070.21 112.087C1012.31 85.8511 918.218 85.8511 857.902 112.087C821.712 127.392 773.459 136.137 722.794 136.137C672.128 136.137 623.875 127.392 587.686 112.087C529.782 85.8511 435.689 85.8511 375.373 112.087C339.183 127.392 290.93 136.137 240.265 136.137C189.599 136.137 141.346 127.392 105.156 112.087C76.2047 98.9692 37.6023 92.4102 -1 92.4102V70.5466C49.6656 70.5466 97.9185 79.292 134.108 94.5965C163.06 107.715 201.662 114.274 240.265 114.274C278.867 114.274 317.469 107.715 346.421 94.5965C423.626 61.8012 541.845 61.8012 616.637 94.5965C645.589 107.715 684.191 114.274 722.794 114.274C761.396 114.274 799.998 107.715 828.95 94.5965C906.155 61.8012 1024.37 61.8012 1101.58 94.5965C1128.12 107.715 1166.72 114.274 1205.32 114.274C1243.93 114.274 1282.53 107.715 1311.48 94.5965C1347.67 79.292 1395.92 70.5466 1446.59 70.5466V92.4102C1407.99 92.4102 1369.38 98.9692 1340.43 112.087C1304.24 127.392 1255.99 136.137 1205.32 136.137Z" fill="#3664F4"/>
<path d="M1206.32 336.137C1155.66 336.137 1107.4 327.392 1071.21 312.087C1013.31 285.851 919.218 285.851 858.902 312.087C781.697 344.883 663.478 344.883 588.686 312.087C530.782 285.851 436.689 285.851 376.373 312.087C299.168 344.883 180.948 344.883 106.156 312.087C77.2047 298.969 38.6023 292.41 0 292.41V270.547C50.6656 270.547 98.9185 279.292 135.108 294.597C193.012 320.833 287.105 320.833 345.008 294.597C422.213 261.801 540.433 261.801 615.225 294.597C673.128 320.833 767.221 320.833 827.537 294.597C904.742 261.801 1022.96 261.801 1100.17 294.597C1158.07 320.833 1252.16 320.833 1312.48 294.597C1348.67 279.292 1396.92 270.547 1447.59 270.547V292.41C1408.99 292.41 1370.38 298.969 1341.43 312.087C1305.24 327.392 1256.99 336.137 1206.32 336.137Z" fill="#3664F4"/>
<path d="M1206.32 241.137C1155.66 241.137 1107.4 232.392 1071.21 217.087C1013.31 190.851 919.218 190.851 858.902 217.087C781.697 249.883 663.478 249.883 588.686 217.087C530.782 190.851 436.689 190.851 376.373 217.087C299.168 249.883 180.948 249.883 106.156 217.087C77.2047 203.969 38.6023 197.41 0 197.41V175.547C50.6656 175.547 98.9185 184.292 135.108 199.597C193.012 225.833 287.105 225.833 345.008 199.597C422.213 166.801 540.433 166.801 615.225 199.597C673.128 225.833 767.221 225.833 827.537 199.597C904.742 166.801 1022.96 166.801 1100.17 199.597C1158.07 225.833 1252.16 225.833 1312.48 199.597C1348.67 184.292 1396.92 175.547 1447.59 175.547V197.41C1408.99 197.41 1370.38 203.969 1341.43 217.087C1305.24 232.392 1256.99 241.137 1206.32 241.137Z" fill="#3664F4"/>
<path d="M1205.53 415.954C1154.86 415.954 1106.61 407.208 1070.42 391.904C1012.52 365.667 918.424 365.667 858.108 391.904C780.903 424.699 662.684 424.699 587.892 391.904C529.988 365.667 435.895 365.667 375.579 391.904C298.374 424.699 180.154 424.699 105.362 391.904C76.4107 378.786 37.8084 372.227 -0.793945 372.227V350.363C49.8716 350.363 98.1245 359.108 134.314 374.413C192.218 400.649 286.311 400.649 344.214 374.413C421.419 341.618 539.639 341.618 614.431 374.413C672.334 400.649 766.427 400.649 826.744 374.413C903.948 341.618 1022.17 341.618 1099.37 374.413C1157.28 400.649 1251.37 400.649 1311.69 374.413C1347.88 359.108 1396.13 350.363 1446.79 350.363V372.227C1408.19 372.227 1369.59 378.786 1340.64 391.904C1304.45 407.208 1256.19 415.954 1205.53 415.954Z" fill="#3664F4"/>
</g>
<path d="M0 393.5V368H51L157 401.5H297L400 375.5L453.5 364.5H540.5L622.5 393.5L756 412L846 383.5L932 364.5L1029.5 375.5L1135 401.5L1226 412L1325 393.5L1381.5 364.5H1440V412V986H0V393.5Z" fill="#3664F4"/>
<defs>
<clipPath id="clip0">
<rect width="1450" height="657" fill="white"/>
</clipPath>
</defs>
</svg>
