<svg width="112" height="112" viewBox="0 0 112 112" fill="none" xmlns="http://www.w3.org/2000/svg">
<path d="M37.4062 32.812V10.937C37.4062 8.53076 35.4375 6.56201 33.0312 6.56201C30.625 6.56201 28.6562 8.53076 28.6562 10.937V6.56201C28.6562 4.15576 26.6875 2.18701 24.2812 2.18701C21.875 2.18701 19.9062 4.15576 19.9062 6.56201V10.937C19.9062 8.53076 17.9375 6.56201 15.5312 6.56201C13.125 6.56201 11.1562 8.53076 11.1562 10.937V15.312C11.1562 12.9058 9.1875 10.937 6.78125 10.937C4.375 10.937 2.40625 12.9058 2.40625 15.312V38.8933C2.40625 47.6756 6.26697 53.3756 6.78125 54.687V74.8122H33.0312V54.687C38.4125 52.0183 41.7812 46.5058 41.7812 40.512V32.812H37.4062Z" fill="#60CBFF"/>
<path d="M106.881 59.7622L105.656 57.3122V37.187H79.4062V57.3122C74.025 59.981 70.6562 65.4935 70.6562 71.4872V79.1872H75.0312V101.062C75.0312 103.468 77 105.437 79.4062 105.437C81.8125 105.437 83.7812 103.468 83.7812 101.062V105.437C83.7812 107.843 85.75 109.812 88.1562 109.812C90.5625 109.812 92.5312 107.843 92.5312 105.437V101.062C92.5312 103.468 94.5 105.437 96.9062 105.437C99.3125 105.437 101.281 103.468 101.281 101.062V96.6872C101.281 99.0935 103.25 101.062 105.656 101.062C108.062 101.062 110.031 99.0935 110.031 96.6872V73.106C110.031 68.4685 108.938 63.9185 106.881 59.7622Z" fill="#60CBFF"/>
<path d="M105.656 19.687H101.281C103.688 19.687 105.656 17.7183 105.656 15.312C105.656 12.9058 103.688 10.937 101.281 10.937H96.9062C99.3125 10.937 101.281 8.96826 101.281 6.56201C101.281 4.15576 99.3125 2.18701 96.9062 2.18701H73.325C68.6875 2.18701 64.1375 3.28076 59.9813 5.33701L57.5312 6.56201H37.4062V32.812H57.5312C60.2 38.1933 65.7125 41.562 71.7062 41.562H79.4062V37.187H101.281C103.688 37.187 105.656 35.2183 105.656 32.812C105.656 30.4058 103.688 28.437 101.281 28.437H105.656C108.062 28.437 110.031 26.4683 110.031 24.062C110.031 21.6558 108.062 19.687 105.656 19.687Z" fill="#60CBFF"/>
<path d="M54.9062 79.1875C52.2375 73.8062 46.725 70.4375 40.7313 70.4375H33.0312V74.8125H11.1562C8.75 74.8125 6.78125 76.7812 6.78125 79.1875C6.78125 81.5938 8.75 83.5625 11.1562 83.5625H6.78125C4.375 83.5625 2.40625 85.5312 2.40625 87.9375C2.40625 90.3438 4.375 92.3125 6.78125 92.3125H11.1562C8.75 92.3125 6.78125 94.2812 6.78125 96.6875C6.78125 99.0938 8.75 101.062 11.1562 101.062H15.5312C13.125 101.062 11.1562 103.031 11.1562 105.438C11.1562 107.844 13.125 109.812 15.5312 109.812H43.4875C48.125 109.812 52.675 108.719 56.8312 106.663L59.2812 105.438H75.0312V79.1875C73.0284 79.1875 56.859 79.1875 54.9062 79.1875Z" fill="#60CBFF"/>
<path d="M112 24.0625C112 21.0405 109.946 18.4903 107.161 17.7312C107.459 16.9822 107.625 16.1667 107.625 15.3125C107.625 12.2905 105.571 9.74028 102.786 8.98122C103.084 8.23222 103.25 7.41672 103.25 6.5625C103.25 2.94394 100.306 0 96.6875 0H73.1063C68.2073 0 63.2579 1.16769 58.784 3.381L56.796 4.375H32.8125C31.9585 4.375 31.1428 4.54081 30.3938 4.83897C29.6347 2.05406 27.0845 0 24.0625 0C21.0405 0 18.4903 2.05406 17.7312 4.83897C16.9822 4.54081 16.1665 4.375 15.3125 4.375C12.2905 4.375 9.74028 6.42906 8.98122 9.21397C8.23222 8.91581 7.4165 8.75 6.5625 8.75C2.94394 8.75 0 11.6939 0 15.3125V38.8937C0 48.1143 3.96725 54.1402 4.375 55.204V79.1875C4.375 80.0415 4.54081 80.8572 4.83897 81.6062C2.05406 82.3653 0 84.9155 0 87.9375C0 90.9595 2.05406 93.5097 4.83897 94.2688C4.54081 95.0178 4.375 95.8335 4.375 96.6875C4.375 99.7095 6.42906 102.26 9.21397 103.019C8.91581 103.768 8.75 104.584 8.75 105.438C8.75 109.056 11.6939 112 15.3125 112H20.5842C21.7923 112 22.7717 111.021 22.7717 109.812C22.7717 108.604 21.7923 107.625 20.5842 107.625H15.3125C14.1063 107.625 13.125 106.644 13.125 105.438C13.125 104.231 14.1063 103.25 15.3125 103.25H19.6875C20.8957 103.25 21.875 102.271 21.875 101.062C21.875 99.8543 20.8957 98.875 19.6875 98.875C16.6272 98.875 13.9978 98.875 10.9375 98.875C9.73131 98.875 8.75 97.8937 8.75 96.6875C8.75 95.4813 9.73131 94.5 10.9375 94.5H19.6875C20.8957 94.5 21.875 93.5207 21.875 92.3125C21.875 91.1043 20.8957 90.125 19.6875 90.125C17.6969 90.125 10.0126 90.125 6.5625 90.125C5.35631 90.125 4.375 89.1437 4.375 87.9375C4.375 86.7313 5.35631 85.75 6.5625 85.75H19.6875C20.8957 85.75 21.875 84.7707 21.875 83.5625C21.875 82.3543 20.8957 81.375 19.6875 81.375H10.9375C9.73131 81.375 8.75 80.3937 8.75 79.1875C8.75 77.9813 9.73131 77 10.9375 77H32.8125C34.0207 77 35 76.0207 35 74.8125V72.625H40.5125C45.7424 72.625 50.423 75.5121 52.7277 80.1594C53.0972 80.904 53.8565 81.375 54.6875 81.375H72.625V101.062C72.625 101.829 72.7584 102.565 73.0013 103.25H59.0625C58.7228 103.25 58.3879 103.329 58.0843 103.481L55.6423 104.702C51.777 106.614 47.4983 107.625 43.2687 107.625H40.2286C39.0204 107.625 38.0411 108.604 38.0411 109.812C38.0411 111.021 39.0204 112 40.2286 112H43.2687C48.1677 112 53.1171 110.832 57.5908 108.619L59.579 107.625H79.1875C80.0415 107.625 80.8572 107.459 81.6062 107.161C82.3655 109.946 84.9155 112 87.9375 112C90.9595 112 93.5097 109.946 94.2688 107.161C95.018 107.459 95.8335 107.625 96.6875 107.625C99.7095 107.625 102.26 105.571 103.019 102.786C103.768 103.084 104.584 103.25 105.438 103.25C109.056 103.25 112 100.306 112 96.6875V70.4375C112 70.105 111.924 69.7913 111.791 69.5091C111.365 65.814 110.291 62.1633 108.619 58.7842L107.625 56.7963V32.8125C107.625 31.9585 107.459 31.1428 107.161 30.3938C109.946 29.6347 112 27.0847 112 24.0625ZM30.625 72.625H10.9375C10.1706 72.625 9.43469 72.7584 8.75 73.0013V54.6875C8.75 54.348 8.67103 54.0131 8.519 53.7093C8.02178 52.4392 4.375 47.077 4.375 38.8937V15.3125C4.375 14.1063 5.35631 13.125 6.5625 13.125C7.76869 13.125 8.75 14.1063 8.75 15.3125V19.6875C8.75 20.8957 9.72934 21.875 10.9375 21.875C12.1457 21.875 13.125 20.8957 13.125 19.6875V10.9375C13.125 9.73131 14.1063 8.75 15.3125 8.75C16.5187 8.75 17.5 9.73131 17.5 10.9375V19.6875C17.5 20.8957 18.4793 21.875 19.6875 21.875C20.8957 21.875 21.875 20.8957 21.875 19.6875C21.875 17.6969 21.875 10.0126 21.875 6.5625C21.875 5.35631 22.8563 4.375 24.0625 4.375C25.2687 4.375 26.25 5.35631 26.25 6.5625V19.6875C26.25 20.8957 27.2293 21.875 28.4375 21.875C29.6457 21.875 30.625 20.8957 30.625 19.6875V10.9375C30.625 9.73131 31.6063 8.75 32.8125 8.75C34.0187 8.75 35 9.73131 35 10.9375V32.8125C35 34.0207 35.9793 35 37.1875 35H39.375V40.5125C39.375 45.663 36.4175 50.4577 31.8406 52.7277C31.096 53.0972 30.625 53.8565 30.625 54.6875V72.625ZM40.5125 68.25H35V55.986C40.4307 52.7586 43.75 46.9488 43.75 40.5125V35H56.0142C59.2414 40.4307 65.051 43.75 71.4875 43.75H77V56.014C71.5693 59.2414 68.25 65.051 68.25 71.4875V77H55.986C52.7586 71.5695 46.949 68.25 40.5125 68.25ZM107.625 96.6875C107.625 97.8937 106.644 98.875 105.438 98.875C104.231 98.875 103.25 97.8937 103.25 96.6875V92.3125C103.25 91.1043 102.27 90.125 101.062 90.125C99.8546 90.125 98.875 91.1043 98.875 92.3125V101.062C98.875 102.269 97.8937 103.25 96.6875 103.25C95.4813 103.25 94.5 102.269 94.5 101.062V92.3125C94.5 91.1043 93.5204 90.125 92.3125 90.125C91.1046 90.125 90.125 91.1043 90.125 92.3125V105.438C90.125 106.644 89.1437 107.625 87.9375 107.625C86.7313 107.625 85.75 106.644 85.75 105.438V92.3125C85.75 91.1043 84.7704 90.125 83.5625 90.125C82.3546 90.125 81.375 91.1043 81.375 92.3125V101.062C81.375 102.269 80.3937 103.25 79.1875 103.25C77.9813 103.25 77 102.269 77 101.062V79.1875C77 77.9793 76.0204 77 74.8125 77H72.625V71.4875C72.625 66.2576 75.5121 61.577 80.1594 59.2723C80.904 58.903 81.375 58.1437 81.375 57.3125V39.375H101.062C101.829 39.375 102.565 39.2416 103.25 38.9987V57.3125C103.25 57.652 103.329 57.9869 103.481 58.2907L104.702 60.7327C106.614 64.598 107.625 68.8767 107.625 73.1063V96.6875ZM105.438 26.25H92.3125C91.1046 26.25 90.125 27.2293 90.125 28.4375C90.125 29.6457 91.1046 30.625 92.3125 30.625H101.062C102.269 30.625 103.25 31.6063 103.25 32.8125C103.25 34.0187 102.269 35 101.062 35H79.1875C77.9796 35 77 35.9793 77 37.1875V39.375H71.4875C66.3368 39.375 61.542 36.4175 59.2723 31.8406C58.903 31.0962 58.1437 30.625 57.3125 30.625H39.375V10.9375C39.375 10.1706 39.2416 9.43469 38.9987 8.75H57.3125C57.6522 8.75 57.9871 8.67103 58.291 8.519C59.5595 8.02266 64.9228 4.375 73.1063 4.375H96.6875C97.8937 4.375 98.875 5.35631 98.875 6.5625C98.875 7.76869 97.8937 8.75 96.6875 8.75H92.3125C91.1046 8.75 90.125 9.72934 90.125 10.9375C90.125 12.1457 91.1046 13.125 92.3125 13.125H101.062C102.269 13.125 103.25 14.1063 103.25 15.3125C103.25 16.5187 102.269 17.5 101.062 17.5H92.3125C91.1046 17.5 90.125 18.4793 90.125 19.6875C90.125 20.8957 91.1046 21.875 92.3125 21.875H105.438C106.644 21.875 107.625 22.8563 107.625 24.0625C107.625 25.2687 106.644 26.25 105.438 26.25Z" fill="white"/>
<path d="M30.625 111.344C31.8331 111.344 32.8125 110.364 32.8125 109.156C32.8125 107.948 31.8331 106.969 30.625 106.969C29.4169 106.969 28.4375 107.948 28.4375 109.156C28.4375 110.364 29.4169 111.344 30.625 111.344Z" fill="white"/>
</svg>
