<svg width="82" height="82" viewBox="0 0 82 82" fill="none" xmlns="http://www.w3.org/2000/svg">
<path d="M41 7.39025C51.947 7.39025 53.2453 7.43125 57.5708 7.62942C68.6818 8.13508 73.8717 13.407 74.3774 24.436C74.5756 28.7581 74.6132 30.0564 74.6132 41.0034C74.6132 51.9538 74.5722 53.2488 74.3774 57.5708C73.8683 68.5896 68.6921 73.8717 57.5708 74.3774C53.2453 74.5756 51.9538 74.6166 41 74.6166C30.053 74.6166 28.7547 74.5756 24.4326 74.3774C13.2943 73.8683 8.13167 68.5725 7.626 57.5674C7.42783 53.2453 7.38683 51.9504 7.38683 41C7.38683 30.053 7.43125 28.7581 7.626 24.4326C8.13508 13.407 13.3113 8.13167 24.4326 7.626C28.7581 7.43125 30.053 7.39025 41 7.39025ZM41 0C29.8651 0 28.4711 0.0478333 24.0977 0.246C9.20792 0.929333 0.93275 9.19083 0.249417 24.0943C0.0478333 28.4711 0 29.8651 0 41C0 52.1349 0.0478333 53.5323 0.246 57.9057C0.929333 72.7955 9.19083 81.0707 24.0943 81.754C28.4711 81.9522 29.8651 82 41 82C52.1349 82 53.5323 81.9522 57.9057 81.754C72.7818 81.0707 81.0775 72.8092 81.7506 57.9057C81.9522 53.5323 82 52.1349 82 41C82 29.8651 81.9522 28.4711 81.754 24.0977C81.0843 9.22158 72.8126 0.93275 57.9091 0.249417C53.5323 0.0478333 52.1349 0 41 0V0ZM41 19.9465C29.3731 19.9465 19.9465 29.3731 19.9465 41C19.9465 52.6269 29.3731 62.0569 41 62.0569C52.6269 62.0569 62.0535 52.6303 62.0535 41C62.0535 29.3731 52.6269 19.9465 41 19.9465ZM41 54.6667C33.4526 54.6667 27.3333 48.5508 27.3333 41C27.3333 33.4526 33.4526 27.3333 41 27.3333C48.5474 27.3333 54.6667 33.4526 54.6667 41C54.6667 48.5508 48.5474 54.6667 41 54.6667ZM62.8872 14.1963C60.1675 14.1963 57.9638 16.4 57.9638 19.1162C57.9638 21.8325 60.1675 24.0362 62.8872 24.0362C65.6034 24.0362 67.8037 21.8325 67.8037 19.1162C67.8037 16.4 65.6034 14.1963 62.8872 14.1963Z" fill="#EE843B"/>
</svg>
