<svg width="466" height="455" viewBox="0 0 466 455" fill="none" xmlns="http://www.w3.org/2000/svg">
<g filter="url(#filter0_ii)">
<path d="M466 227.5C466 353.145 361.682 455 233 455C104.318 455 0 353.145 0 227.5C0 101.855 104.318 0 233 0C361.682 0 466 101.855 466 227.5Z" fill="url(#paint0_linear)"/>
</g>
<path d="M233 285.39C243.947 285.39 245.245 285.431 249.571 285.629C260.682 286.135 265.872 291.407 266.377 302.436C266.576 306.758 266.613 308.056 266.613 319.003C266.613 329.954 266.572 331.249 266.377 335.571C265.868 346.59 260.692 351.872 249.571 352.377C245.245 352.576 243.954 352.617 233 352.617C222.053 352.617 220.755 352.576 216.433 352.377C205.294 351.868 200.132 346.573 199.626 335.567C199.428 331.245 199.387 329.95 199.387 319C199.387 308.053 199.431 306.758 199.626 302.433C200.135 291.407 205.311 286.132 216.433 285.626C220.758 285.431 222.053 285.39 233 285.39V285.39ZM233 278C221.865 278 220.471 278.048 216.098 278.246C201.208 278.929 192.933 287.191 192.249 302.094C192.048 306.471 192 307.865 192 319C192 330.135 192.048 331.532 192.246 335.906C192.929 350.796 201.191 359.071 216.094 359.754C220.471 359.952 221.865 360 233 360C244.135 360 245.532 359.952 249.906 359.754C264.782 359.071 273.078 350.809 273.751 335.906C273.952 331.532 274 330.135 274 319C274 307.865 273.952 306.471 273.754 302.098C273.084 287.222 264.813 278.933 249.909 278.249C245.532 278.048 244.135 278 233 278V278ZM233 297.946C221.373 297.946 211.946 307.373 211.946 319C211.946 330.627 221.373 340.057 233 340.057C244.627 340.057 254.054 330.63 254.054 319C254.054 307.373 244.627 297.946 233 297.946ZM233 332.667C225.453 332.667 219.333 326.551 219.333 319C219.333 311.453 225.453 305.333 233 305.333C240.547 305.333 246.667 311.453 246.667 319C246.667 326.551 240.547 332.667 233 332.667ZM254.887 292.196C252.168 292.196 249.964 294.4 249.964 297.116C249.964 299.832 252.168 302.036 254.887 302.036C257.603 302.036 259.804 299.832 259.804 297.116C259.804 294.4 257.603 292.196 254.887 292.196Z" fill="#EE843B"/>
<path d="M76.6699 212H68.2617V169.988H76.6699V212ZM118.096 212H109.102L92.9004 184.344V212H84.4922V169.988H93.4863L109.688 197.674V169.988H118.096V212ZM123.457 182.586C123.457 180.848 123.789 179.217 124.453 177.693C125.117 176.17 126.016 174.842 127.148 173.709C128.301 172.557 129.639 171.648 131.162 170.984C132.686 170.32 134.316 169.988 136.055 169.988H155.332V178.396H136.055C135.469 178.396 134.922 178.504 134.414 178.719C133.906 178.934 133.457 179.236 133.066 179.627C132.695 179.998 132.402 180.438 132.188 180.945C131.973 181.453 131.865 182 131.865 182.586C131.865 183.172 131.973 183.729 132.188 184.256C132.402 184.764 132.695 185.213 133.066 185.604C133.457 185.975 133.906 186.268 134.414 186.482C134.922 186.697 135.469 186.805 136.055 186.805H144.463C146.201 186.805 147.832 187.137 149.355 187.801C150.898 188.445 152.236 189.344 153.369 190.496C154.521 191.629 155.42 192.967 156.064 194.51C156.729 196.033 157.061 197.664 157.061 199.402C157.061 201.141 156.729 202.771 156.064 204.295C155.42 205.818 154.521 207.156 153.369 208.309C152.236 209.441 150.898 210.34 149.355 211.004C147.832 211.668 146.201 212 144.463 212H125.801V203.592H144.463C145.049 203.592 145.596 203.484 146.104 203.27C146.611 203.055 147.051 202.762 147.422 202.391C147.812 202 148.115 201.551 148.33 201.043C148.545 200.535 148.652 199.988 148.652 199.402C148.652 198.816 148.545 198.27 148.33 197.762C148.115 197.254 147.812 196.814 147.422 196.443C147.051 196.053 146.611 195.75 146.104 195.535C145.596 195.32 145.049 195.213 144.463 195.213H136.055C134.316 195.213 132.686 194.881 131.162 194.217C129.639 193.553 128.301 192.654 127.148 191.521C126.016 190.369 125.117 189.031 124.453 187.508C123.789 185.965 123.457 184.324 123.457 182.586ZM179.648 212H171.27V178.396H158.643V169.988H192.246V178.396H179.648V212ZM220.137 195.213V186.805C220.137 185.652 219.912 184.568 219.463 183.553C219.033 182.518 218.438 181.619 217.676 180.857C216.914 180.096 216.016 179.5 214.98 179.07C213.965 178.621 212.881 178.396 211.729 178.396C210.576 178.396 209.482 178.621 208.447 179.07C207.432 179.5 206.543 180.096 205.781 180.857C205.02 181.619 204.414 182.518 203.965 183.553C203.535 184.568 203.32 185.652 203.32 186.805V195.213H220.137ZM228.545 212H220.137V203.592H203.32V212H194.941V186.805C194.941 184.48 195.381 182.303 196.26 180.271C197.139 178.221 198.33 176.434 199.834 174.91C201.357 173.387 203.135 172.186 205.166 171.307C207.217 170.428 209.404 169.988 211.729 169.988C214.053 169.988 216.23 170.428 218.262 171.307C220.312 172.186 222.1 173.387 223.623 174.91C225.146 176.434 226.348 178.221 227.227 180.271C228.105 182.303 228.545 184.48 228.545 186.805V212ZM269.268 207.752C267.314 209.412 265.137 210.691 262.734 211.59C260.332 212.469 257.832 212.908 255.234 212.908C253.242 212.908 251.318 212.645 249.463 212.117C247.627 211.609 245.908 210.887 244.307 209.949C242.705 208.992 241.24 207.859 239.912 206.551C238.584 205.223 237.451 203.758 236.514 202.156C235.576 200.535 234.844 198.797 234.316 196.941C233.809 195.086 233.555 193.162 233.555 191.17C233.555 189.178 233.809 187.264 234.316 185.428C234.844 183.592 235.576 181.873 236.514 180.271C237.451 178.65 238.584 177.186 239.912 175.877C241.24 174.549 242.705 173.416 244.307 172.479C245.908 171.541 247.627 170.818 249.463 170.311C251.318 169.783 253.242 169.52 255.234 169.52C257.832 169.52 260.332 169.969 262.734 170.867C265.137 171.746 267.314 173.016 269.268 174.676L264.873 182C263.604 180.711 262.139 179.705 260.479 178.982C258.818 178.24 257.07 177.869 255.234 177.869C253.398 177.869 251.67 178.221 250.049 178.924C248.447 179.627 247.041 180.584 245.83 181.795C244.619 182.986 243.662 184.393 242.959 186.014C242.256 187.615 241.904 189.334 241.904 191.17C241.904 193.025 242.256 194.764 242.959 196.385C243.662 198.006 244.619 199.422 245.83 200.633C247.041 201.844 248.447 202.801 250.049 203.504C251.67 204.207 253.398 204.559 255.234 204.559C256.289 204.559 257.314 204.432 258.311 204.178C259.307 203.924 260.254 203.572 261.152 203.123V191.17H269.268V207.752ZM284.15 178.396V195.213H292.559C293.711 195.213 294.795 194.998 295.811 194.568C296.826 194.119 297.715 193.514 298.477 192.752C299.238 191.99 299.834 191.102 300.264 190.086C300.713 189.051 300.938 187.957 300.938 186.805C300.938 185.652 300.713 184.568 300.264 183.553C299.834 182.518 299.238 181.619 298.477 180.857C297.715 180.096 296.826 179.5 295.811 179.07C294.795 178.621 293.711 178.396 292.559 178.396H284.15ZM284.15 212H275.742V169.988H292.559C294.102 169.988 295.586 170.193 297.012 170.604C298.438 170.994 299.766 171.561 300.996 172.303C302.246 173.025 303.379 173.904 304.395 174.939C305.43 175.955 306.309 177.088 307.031 178.338C307.773 179.588 308.34 180.926 308.73 182.352C309.141 183.777 309.346 185.262 309.346 186.805C309.346 188.25 309.16 189.656 308.789 191.023C308.438 192.391 307.92 193.689 307.236 194.92C306.572 196.15 305.752 197.283 304.775 198.318C303.799 199.354 302.705 200.252 301.494 201.014L306.152 212H297.217L293.555 203.533L284.15 203.592V212ZM339.609 195.213V186.805C339.609 185.652 339.385 184.568 338.936 183.553C338.506 182.518 337.91 181.619 337.148 180.857C336.387 180.096 335.488 179.5 334.453 179.07C333.438 178.621 332.354 178.396 331.201 178.396C330.049 178.396 328.955 178.621 327.92 179.07C326.904 179.5 326.016 180.096 325.254 180.857C324.492 181.619 323.887 182.518 323.438 183.553C323.008 184.568 322.793 185.652 322.793 186.805V195.213H339.609ZM348.018 212H339.609V203.592H322.793V212H314.414V186.805C314.414 184.48 314.854 182.303 315.732 180.271C316.611 178.221 317.803 176.434 319.307 174.91C320.83 173.387 322.607 172.186 324.639 171.307C326.689 170.428 328.877 169.988 331.201 169.988C333.525 169.988 335.703 170.428 337.734 171.307C339.785 172.186 341.572 173.387 343.096 174.91C344.619 176.434 345.82 178.221 346.699 180.271C347.578 182.303 348.018 184.48 348.018 186.805V212ZM397.002 212H388.623V182C388.623 181.414 388.506 180.867 388.271 180.359C388.057 179.852 387.754 179.412 387.363 179.041C386.992 178.65 386.553 178.348 386.045 178.133C385.537 177.918 384.99 177.811 384.404 177.811C383.818 177.811 383.271 177.918 382.764 178.133C382.256 178.348 381.807 178.65 381.416 179.041C381.045 179.412 380.752 179.852 380.537 180.359C380.322 180.867 380.215 181.414 380.215 182V212H371.807V182C371.807 181.414 371.699 180.867 371.484 180.359C371.27 179.852 370.967 179.412 370.576 179.041C370.205 178.65 369.766 178.348 369.258 178.133C368.75 177.918 368.203 177.811 367.617 177.811C367.031 177.811 366.484 177.918 365.977 178.133C365.469 178.348 365.02 178.65 364.629 179.041C364.258 179.412 363.965 179.852 363.75 180.359C363.535 180.867 363.428 181.414 363.428 182V212H355.02V182C355.02 180.262 355.342 178.631 355.986 177.107C356.65 175.564 357.549 174.227 358.682 173.094C359.834 171.941 361.172 171.043 362.695 170.398C364.238 169.734 365.879 169.402 367.617 169.402C369.18 169.402 370.684 169.686 372.129 170.252C373.574 170.799 374.873 171.6 376.025 172.654C377.178 171.6 378.467 170.799 379.893 170.252C381.338 169.686 382.842 169.402 384.404 169.402C386.143 169.402 387.773 169.734 389.297 170.398C390.84 171.043 392.178 171.941 393.311 173.094C394.463 174.227 395.361 175.564 396.006 177.107C396.67 178.631 397.002 180.262 397.002 182V212Z" fill="#EE843B"/>
<defs>
<filter id="filter0_ii" x="0" y="0" width="474" height="463" filterUnits="userSpaceOnUse" color-interpolation-filters="sRGB">
<feFlood flood-opacity="0" result="BackgroundImageFix"/>
<feBlend mode="normal" in="SourceGraphic" in2="BackgroundImageFix" result="shape"/>
<feColorMatrix in="SourceAlpha" type="matrix" values="0 0 0 0 0 0 0 0 0 0 0 0 0 0 0 0 0 0 127 0" result="hardAlpha"/>
<feOffset dy="4"/>
<feGaussianBlur stdDeviation="50"/>
<feComposite in2="hardAlpha" operator="arithmetic" k2="-1" k3="1"/>
<feColorMatrix type="matrix" values="0 0 0 0 1 0 0 0 0 1 0 0 0 0 1 0 0 0 0.5 0"/>
<feBlend mode="normal" in2="shape" result="effect1_innerShadow"/>
<feColorMatrix in="SourceAlpha" type="matrix" values="0 0 0 0 0 0 0 0 0 0 0 0 0 0 0 0 0 0 127 0" result="hardAlpha"/>
<feOffset dx="8" dy="8"/>
<feGaussianBlur stdDeviation="10"/>
<feComposite in2="hardAlpha" operator="arithmetic" k2="-1" k3="1"/>
<feColorMatrix type="matrix" values="0 0 0 0 1 0 0 0 0 1 0 0 0 0 1 0 0 0 0.25 0"/>
<feBlend mode="normal" in2="effect1_innerShadow" result="effect2_innerShadow"/>
</filter>
<linearGradient id="paint0_linear" x1="130.007" y1="83.5571" x2="298.551" y2="377.302" gradientUnits="userSpaceOnUse">
<stop stop-color="#60CBFF" stop-opacity="0.25"/>
<stop offset="1" stop-color="#60CBFF" stop-opacity="0.25"/>
</linearGradient>
</defs>
</svg>
