<svg width="233" height="37" viewBox="0 0 233 37" fill="none" xmlns="http://www.w3.org/2000/svg">
<path fill-rule="evenodd" clip-rule="evenodd" d="M163.458 13.6356V25.3887H165.587H167.716L167.717 21.0433C167.719 15.7626 167.782 15.2006 168.495 14.0912C169.962 11.8086 173.692 11.437 175.027 13.4404C175.426 14.0395 175.434 14.1418 175.486 19.7191L175.539 25.3887H177.659H179.779V19.1284C179.779 14.064 179.729 12.7093 179.515 12.0373C178.783 9.73756 176.451 8.30915 173.438 8.31494C171.657 8.31858 169.988 8.80046 168.75 9.66869L167.804 10.3318L167.757 6.10718L167.71 1.88254H165.584H163.458V13.6356ZM184.037 4.11727V6.18648H186.166H188.294V4.11727V2.04807H186.166H184.037V4.11727ZM151.04 5.76535V8.65495L149.753 8.70362L148.467 8.75229L148.416 10.2007L148.365 11.6492H149.702H151.04L151.041 17.1532C151.041 20.6672 151.113 22.896 151.238 23.3175C151.498 24.1902 152.433 24.9886 153.563 25.3016C154.504 25.5623 156.914 25.636 158.377 25.4489L159.2 25.3436V23.6553V21.9672L157.825 22.0414C156.648 22.1049 156.389 22.0687 156.019 21.7892C155.442 21.3536 155.318 20.2416 155.306 15.4151L155.297 11.6492H157.249H159.2V10.1593V8.66952H157.249H155.297V5.77264V2.87575H153.169H151.04V5.76535ZM224.84 5.76535V8.65495L223.554 8.70362L222.267 8.75229L222.216 10.2007L222.165 11.6492H223.49H224.815L224.872 17.4015C224.934 23.7368 224.93 23.7146 226.084 24.6199C227.124 25.4367 229.619 25.7762 232.177 25.4489L233 25.3436V23.6682V21.9927L231.622 22.0511C230.448 22.101 230.178 22.0602 229.803 21.7775L229.363 21.4454L229.312 16.5474L229.26 11.6492H231.13H233V10.1593V8.66952H231.138H229.275V5.77264V2.87575H227.057H224.84V5.76535ZM69.1677 8.35616C68.6799 8.42022 67.9406 8.58857 67.5248 8.72994C66.5973 9.04561 65.1951 9.92792 65.031 10.2992C64.9583 10.4641 64.8747 10.2105 64.8213 9.66273L64.7326 8.75229L62.5594 8.70577L60.3862 8.65925V17.024V25.3887H62.6038H64.8213V20.5317C64.8213 15.258 64.9095 14.624 65.7924 13.5439C66.4382 12.7538 67.4911 12.2855 68.6433 12.2759C69.8245 12.266 70.6173 12.6954 71.2146 13.6689C71.6508 14.3797 71.6514 14.3863 71.7103 19.8846L71.7692 25.3887H73.8945H76.02L75.9566 18.8086C75.8841 11.2726 75.8685 11.1817 74.4054 9.81635C73.1304 8.62681 71.2006 8.08882 69.1677 8.35616ZM86.7307 8.3396C83.7672 8.64121 81.3034 10.2045 80.0002 12.6106C79.4653 13.5979 79.0135 15.6212 79.0167 17.0142C79.0254 20.7689 80.7918 23.6949 83.8571 25.0319C85.375 25.6939 86.4369 25.9036 88.258 25.901C91.2744 25.8965 93.3775 25.0785 95.5917 23.0482L97.0194 21.7388L95.1799 20.7341L93.3404 19.7295L92.5192 20.4813C91.3202 21.579 90.4209 21.9051 88.5935 21.9051C86.8228 21.9051 85.9732 21.6139 84.9909 20.6701C84.4379 20.1389 83.6261 18.6095 83.6261 18.0988C83.6261 17.9996 86.1125 17.9395 90.2164 17.9395H96.8066L96.6971 16.6566C96.4755 14.0587 95.5429 11.8276 94.1263 10.5056C92.3537 8.85177 89.6059 8.04693 86.7307 8.3396ZM122.978 8.36195C118.105 8.92924 115.059 12.7371 115.442 17.7796C115.824 22.8045 119.334 25.9154 124.606 25.9023C127.217 25.8959 129.132 25.2989 131.116 23.8729C131.992 23.2436 133.412 21.7949 133.275 21.6704C133.239 21.6383 132.429 21.1915 131.474 20.6775L129.738 19.7431L128.99 20.459C128.579 20.8528 127.924 21.3196 127.534 21.4964C126.649 21.897 124.362 22.0306 123.27 21.7454C121.868 21.379 120.502 19.9329 120.105 18.3948L119.987 17.9395H126.581H133.175L133.066 16.5739C132.851 13.8556 132.035 11.9387 130.472 10.4793C128.639 8.76834 125.969 8.01366 122.978 8.36195ZM211.033 8.35268C208.137 8.69849 206.184 9.87396 205.239 11.84C204.283 13.8268 204.896 15.9715 206.78 17.2345C207.878 17.9698 209.1 18.3554 212.184 18.9382C214.915 19.4544 215.329 19.5926 215.611 20.0844C215.928 20.6378 215.809 21.1023 215.205 21.6658C213.637 23.1286 209.644 22.7772 207.796 21.014L207.205 20.4497L206.132 21.2852C205.542 21.7446 204.821 22.3069 204.53 22.5347L204.001 22.9488L204.742 23.5618C207.256 25.6438 212.378 26.5251 215.894 25.4804C217.549 24.9887 218.829 24.1467 219.646 23.0132C221.472 20.4785 220.572 17.3034 217.692 16.1162C217.224 15.9235 215.627 15.5449 214.143 15.2749C212.66 15.0048 211.166 14.7026 210.825 14.6032C209.949 14.3484 209.406 13.8356 209.406 13.2648C209.406 12.0849 210.285 11.5795 212.333 11.582C214.173 11.5843 215.311 12.0306 216.424 13.1858L217.224 14.0153L218.614 12.7909C219.379 12.1175 220.015 11.4797 220.027 11.3735C220.067 11.0312 218.412 9.82181 217.129 9.25601C215.203 8.40665 213.14 8.10107 211.033 8.35268ZM144.144 8.51689C142.938 8.73805 141.883 9.29111 141.116 10.1044L140.413 10.8493L140.36 9.80079L140.307 8.75229H138.267H136.226L136.18 17.0705L136.135 25.3887H138.253H140.371L140.431 20.6295C140.499 15.1951 140.554 14.9437 141.934 13.8109C142.853 13.0557 144.014 12.6424 145.217 12.6424H146.072V10.4904V8.33845L145.496 8.35665C145.179 8.36658 144.57 8.4386 144.144 8.51689ZM200.543 8.51557C199.214 8.76487 197.924 9.45565 197.25 10.2794L196.632 11.0347V9.85211V8.66952H194.592H192.552V17.0291V25.3887H194.568H196.584L196.679 20.8778C196.783 16.017 196.898 15.3161 197.762 14.2585C198.447 13.4201 199.792 12.8001 201.209 12.6694L202.398 12.5596V10.4904V8.42121L201.866 8.39423C201.573 8.3795 200.978 8.43413 200.543 8.51557ZM97.9959 8.83025C97.9959 8.96219 100.81 17.1433 103.165 23.8575L103.702 25.3887H106.045H108.387L111.264 17.2102C112.845 12.7119 114.14 8.9501 114.14 8.85061C114.14 8.72928 113.412 8.66952 111.934 8.66952C109.987 8.66952 109.718 8.70345 109.636 8.95921C109.585 9.11845 108.813 11.5581 107.921 14.3805C107.028 17.2029 106.241 19.609 106.171 19.7272C106.036 19.9563 105.978 19.795 103.757 12.9321L102.377 8.66952H100.186C98.8873 8.66952 97.9959 8.73491 97.9959 8.83025ZM184.037 17.0291V25.3887H186.166H188.294V17.0291V8.66952H186.166H184.037V17.0291ZM89.2144 11.6664C90.2589 11.9326 91.0606 12.5768 91.538 13.5335C92.2952 15.0508 92.5281 14.9599 87.8838 14.9599C84.7358 14.9599 83.8044 14.9125 83.8075 14.753C83.8142 14.3908 84.521 13.0705 84.9233 12.668C85.9067 11.6846 87.6706 11.2729 89.2144 11.6664ZM126.341 11.8806C127.343 12.3693 128.332 13.7314 128.332 14.6235C128.332 14.9519 128.235 14.9599 124.232 14.9599H120.133L120.253 14.5047C120.447 13.7684 121.195 12.692 121.785 12.3002C122.998 11.4937 125.142 11.2962 126.341 11.8806Z" fill="white"/>
<path fill-rule="evenodd" clip-rule="evenodd" d="M23.243 0.0633255C21.6568 0.362761 20.3576 1.0743 19.2688 2.23951C17.9258 3.6769 17.3397 5.19129 17.3397 7.22404C17.3397 9.2078 18.051 10.8269 19.5547 12.2665C19.9599 12.6543 22.8226 15.0998 25.9163 17.701L31.5412 22.4306L31.5056 13.9814L31.47 5.53243L31.1802 4.7302C30.1897 1.9878 27.7611 0.17486 24.8632 0.014843C24.283 -0.0173112 23.5539 0.00454359 23.243 0.0633255ZM26.2101 3.6229C26.5641 3.80301 27.0881 4.21687 27.3747 4.54243C28.2263 5.50994 28.3521 6.16195 28.5113 10.4309C28.5859 12.4343 28.6788 14.568 28.7177 15.1724C28.7566 15.7769 28.7418 16.2712 28.6847 16.2709C28.5638 16.2704 25.7217 13.7079 23.1277 11.2604C21.5814 9.8014 21.2608 9.43238 20.9338 8.73528C19.9097 6.55219 20.969 4.13899 23.2837 3.38212C24.094 3.11709 25.4334 3.22725 26.2101 3.6229ZM34.8239 15.0221L34.8612 23.368L35.2117 24.3591C36.0046 26.6013 37.6261 28.1641 39.8853 28.8631C41.0132 29.212 42.8091 29.2325 43.9046 28.9088C48.5893 27.5246 50.6029 21.8907 47.8111 17.9784C47.1964 17.1171 45.4608 15.5869 38.7549 9.99395C36.8206 8.38071 35.1364 6.97422 35.0123 6.86846C34.7954 6.68357 34.7881 7.00084 34.8239 15.0221ZM5.4075 8.0549C2.88252 8.72097 0.8455 10.7777 0.197769 13.3147C-0.353751 15.4747 0.275141 18.0456 1.74896 19.6564C2.06862 20.0058 4.98673 22.5247 8.23355 25.2537L14.1369 30.2158L14.1691 22.1053C14.2049 13.1413 14.1999 13.0716 13.4172 11.5743C12.8682 10.5241 11.4742 9.15944 10.4249 8.6451C8.8745 7.88496 6.92214 7.65523 5.4075 8.0549ZM8.37134 11.2622C9.53354 11.6133 10.5092 12.6626 10.8684 13.9478C10.9734 14.323 11.0977 15.8145 11.1772 17.653C11.2504 19.3455 11.3462 21.5146 11.3903 22.473C11.461 24.0142 11.4481 24.2031 11.2785 24.1059C11.066 23.984 6.23082 19.5528 4.83337 18.1993C3.54055 16.9469 3.02973 15.6756 3.28219 14.338C3.72958 11.967 6.0541 10.5622 8.37134 11.2622ZM39.2392 14.16C45.7202 20.0861 45.79 20.1702 45.7869 22.0491C45.7854 22.9584 45.7358 23.2106 45.4527 23.7498C43.8271 26.8456 39.4025 26.5645 38.248 23.2922C37.9841 22.5444 37.5344 12.8802 37.7634 12.8802C37.8052 12.8802 38.4694 13.456 39.2392 14.16ZM17.2405 22.6819L17.2769 31.1553L17.6035 31.9942C18.055 33.154 18.6118 33.9785 19.4973 34.7983C20.8499 36.0506 22.3985 36.645 24.2879 36.637C26.3815 36.628 27.88 36.0089 29.3385 34.5503C30.7883 33.1006 31.4072 31.5895 31.4072 29.4994C31.4072 27.6201 30.8318 26.0993 29.6251 24.7896C29.3273 24.4663 26.5401 22.0699 23.4314 19.4644C20.3228 16.8587 17.6498 14.6102 17.4917 14.4676L17.2041 14.2085L17.2405 22.6819ZM21.8225 21.8791C25.4227 25.1523 27.0974 26.7728 27.5359 27.4074C28.8776 29.3503 28.2048 31.9345 26.0857 32.9778C24.0184 33.9954 21.8362 33.2897 20.8488 31.2842L20.4431 30.4602L20.2835 26.9769C20.0353 21.5663 20.0055 20.4163 20.1134 20.4163C20.1684 20.4163 20.9376 21.0746 21.8225 21.8791Z" fill="white"/>
</svg>
