<svg width="107" height="71" viewBox="0 0 107 71" fill="none" xmlns="http://www.w3.org/2000/svg">
<rect x="3.92725" y="7.60059" width="99" height="53" fill="#60CBFF" fill-opacity="0.44"/>
<rect y="18.0151" width="98.5024" height="53" transform="rotate(-10.5382 0 18.0151)" fill="#60CBFF"/>
<path d="M96.5918 38.1898C95.7168 38.3526 94.8858 38.7045 94.1463 39.2255C93.4068 39.7464 92.7732 40.4262 92.2818 41.226C91.7905 42.0258 91.4509 42.93 91.2824 43.8868C91.114 44.8437 91.12 45.8346 91.3001 46.8029L97.9635 45.5633L96.5918 38.1898Z" fill="#12A0E4"/>
<path d="M96.5918 38.1898C95.7168 38.3526 94.8858 38.7045 94.1463 39.2255C93.4068 39.7464 92.7732 40.4262 92.2818 41.226C91.7905 42.0258 91.4509 42.93 91.2824 43.8868C91.114 44.8437 91.12 45.8346 91.3001 46.8029L97.9635 45.5633L96.5918 38.1898Z" fill="#12A0E4"/>
<path d="M92.5683 16.5608C91.6932 16.7236 90.7913 16.694 89.9139 16.4739C89.0365 16.2537 88.2009 15.8472 87.4548 15.2777C86.7087 14.7081 86.0666 13.9865 85.5654 13.1542C85.0641 12.3219 84.7134 11.3952 84.5332 10.4269L91.1966 9.1873L92.5683 16.5608Z" fill="#12A0E4"/>
<path d="M92.5683 16.5608C91.6932 16.7236 90.7913 16.694 89.9139 16.4739C89.0365 16.2537 88.2009 15.8472 87.4548 15.2777C86.7087 14.7081 86.0666 13.9865 85.5654 13.1542C85.0641 12.3219 84.7134 11.3952 84.5332 10.4269L91.1966 9.1873L92.5683 16.5608Z" fill="#12A0E4"/>
<rect x="7.10548" y="23.3044" width="86.4655" height="40" transform="rotate(-10.5382 7.10548 23.3044)" stroke="#12A0E4" stroke-width="3"/>
<path d="M13.9664 53.5603C14.8414 53.3975 15.7434 53.427 16.6208 53.6472C17.4981 53.8674 18.3337 54.2738 19.0799 54.8434C19.826 55.413 20.468 56.1346 20.9693 56.9669C21.4706 57.7992 21.8213 58.7259 22.0014 59.6942L15.3381 60.9338L13.9664 53.5603Z" fill="#12A0E4"/>
<path d="M13.9664 53.5603C14.8414 53.3975 15.7434 53.427 16.6208 53.6472C17.4981 53.8674 18.3337 54.2738 19.0799 54.8434C19.826 55.413 20.468 56.1346 20.9693 56.9669C21.4706 57.7992 21.8213 58.7259 22.0014 59.6942L15.3381 60.9338L13.9664 53.5603Z" fill="#12A0E4"/>
<path d="M9.94286 31.9313C10.8179 31.7685 11.6489 31.4166 12.3884 30.8956C13.1279 30.3747 13.7614 29.6949 14.2528 28.8951C14.7442 28.0953 15.0838 27.1911 15.2523 26.2342C15.4207 25.2774 15.4147 24.2865 15.2346 23.3182L8.57118 24.5578L9.94286 31.9313Z" fill="#12A0E4"/>
<path d="M9.94286 31.9313C10.8179 31.7685 11.6489 31.4166 12.3884 30.8956C13.1279 30.3747 13.7614 29.6949 14.2528 28.8951C14.7442 28.0953 15.0838 27.1911 15.2523 26.2342C15.4207 25.2774 15.4147 24.2865 15.2346 23.3182L8.57118 24.5578L9.94286 31.9313Z" fill="#12A0E4"/>
</svg>
