<svg width="129" height="129" viewBox="0 0 129 129" fill="none" xmlns="http://www.w3.org/2000/svg">
<path d="M116.187 15.3397L65.5868 0.159486C64.8783 -0.0531621 64.1232 -0.0531621 63.4145 0.159486L12.8137 15.3397C11.2153 15.8191 10.1206 17.2905 10.1206 18.9595V74.6199C10.1206 81.8596 13.0516 89.2705 18.8316 96.6469C23.2461 102.281 29.3537 107.938 36.9841 113.461C49.8027 122.74 62.4253 128.432 62.9564 128.67C63.4475 128.89 63.9741 129 64.5007 129C65.0272 129 65.5538 128.89 66.0449 128.67C66.5757 128.432 79.1981 122.74 92.0167 113.461C99.6471 107.938 105.754 102.281 110.169 96.6469C115.949 89.2708 118.88 81.8598 118.88 74.6199V18.9595C118.88 17.2905 117.785 15.8191 116.187 15.3397Z" fill="#60CBFF"/>
</svg>
