<?xml version="1.0" encoding="UTF-8" standalone="no"?>
<!DOCTYPE svg PUBLIC "-//W3C//DTD SVG 1.1//EN" "http://www.w3.org/Graphics/SVG/1.1/DTD/svg11.dtd">
<svg version="1.1" xmlns="http://www.w3.org/2000/svg" xmlns:xlink="http://www.w3.org/1999/xlink" preserveAspectRatio="xMidYMid meet" viewBox="0 0 640 640" width="640" height="640"><defs><path d="M0 419.48C92.85 419.48 139.27 379.69 182.38 346.53C218.86 313.37 252.02 286.84 321.66 286.84C391.3 286.84 421.14 313.37 460.93 346.53C504.04 379.69 550.47 419.48 643.32 419.48C736.17 419.48 782.59 379.69 825.7 346.53C821.06 343.54 783.92 319.67 779.27 316.68C742.8 349.84 709.64 376.37 640 376.37C570.36 376.37 540.52 349.84 500.73 316.68C460.93 283.52 411.19 243.73 321.66 243.73C228.81 243.73 182.38 283.52 139.27 316.68C99.48 349.84 69.64 376.37 0 376.37C-69.64 376.37 -99.48 349.84 -139.27 316.68C-142.15 318.67 -156.52 328.62 -182.38 346.53C-122.69 395.16 -61.9 419.48 0 419.48Z" id="b2MtT4KW45"></path></defs><g><g><g><use xlink:href="#b2MtT4KW45" opacity="1" fill="#60cbff" fill-opacity="1"></use><g><use xlink:href="#b2MtT4KW45" opacity="1" fill-opacity="0" stroke="#000000" stroke-width="1" stroke-opacity="0"></use></g></g></g></g></svg>